<svg xmlns="http://www.w3.org/2000/svg" xmlns:xlink="http://www.w3.org/1999/xlink" width="500" zoomAndPan="magnify" viewBox="0 0 375 374.999991" height="500" preserveAspectRatio="xMidYMid meet" version="1.0"><defs><g/></defs><g fill="#000000" fill-opacity="1"><g transform="translate(76.517481, 243.132257)"><g><path d="M 269.234375 -69.765625 C 270.117188 -69.585938 270.816406 -69.21875 271.328125 -68.65625 C 271.847656 -68.101562 271.960938 -67.570312 271.671875 -67.0625 C 271.335938 -66.582031 270.96875 -66.285156 270.5625 -66.171875 C 270.15625 -66.054688 269.710938 -66.035156 269.234375 -66.109375 C 268.640625 -66.109375 268.03125 -66.148438 267.40625 -66.234375 C 258.613281 -66.484375 246.972656 -65.972656 232.484375 -64.703125 C 217.992188 -63.429688 206.320312 -62.1875 197.46875 -60.96875 C 190.632812 -60.082031 183.800781 -59.125 176.96875 -58.09375 C 176.820312 -58.09375 176.617188 -58.035156 176.359375 -57.921875 C 173.523438 -57.515625 170.925781 -56.460938 168.5625 -54.765625 C 159.882812 -48.859375 150.910156 -43.503906 141.640625 -38.703125 C 132.378906 -33.910156 122.929688 -29.445312 113.296875 -25.3125 C 97.679688 -18.40625 81.710938 -12.382812 65.390625 -7.25 C 62.066406 -6.363281 59.632812 -4.332031 58.09375 -1.15625 C 50.851562 13.269531 43.300781 27.390625 35.4375 41.203125 C 28.457031 53.492188 21.757812 65.929688 15.34375 78.515625 C 15.34375 78.585938 15.304688 78.660156 15.234375 78.734375 C 14.972656 79.398438 14.640625 79.9375 14.234375 80.34375 C 13.566406 80.894531 12.789062 81.097656 11.90625 80.953125 C 11.425781 81.097656 10.945312 81.097656 10.46875 80.953125 C 9.46875 80.546875 8.96875 79.804688 8.96875 78.734375 C 9.082031 76.960938 9.65625 75.304688 10.6875 73.765625 C 10.757812 73.679688 10.796875 73.585938 10.796875 73.484375 C 17.296875 61.816406 23.691406 50.148438 29.984375 38.484375 C 36.273438 26.816406 42.359375 14.984375 48.234375 2.984375 C 48.710938 1.992188 49.191406 0.976562 49.671875 -0.0625 C 49.859375 -0.570312 50.0625 -1.101562 50.28125 -1.65625 C 49.726562 -1.800781 49.210938 -1.929688 48.734375 -2.046875 C 47.804688 -1.859375 46.898438 -1.601562 46.015625 -1.28125 C 45.679688 -1.195312 45.367188 -1.082031 45.078125 -0.9375 C 33.703125 2.3125 22.203125 5.078125 10.578125 7.359375 C 2.523438 8.804688 -5.554688 9.820312 -13.671875 10.40625 C -14.078125 10.476562 -14.445312 10.515625 -14.78125 10.515625 C -15.59375 10.585938 -16.40625 10.625 -17.21875 10.625 C -20.351562 10.625 -23.398438 10.144531 -26.359375 9.1875 C -28.609375 8.375 -29.953125 7.09375 -30.390625 5.34375 C -30.835938 3.59375 -30.304688 1.703125 -28.796875 -0.328125 C -26.765625 -2.691406 -24.363281 -4.628906 -21.59375 -6.140625 C -15.320312 -10.054688 -8.734375 -13.269531 -1.828125 -15.78125 C 16.585938 -22.757812 35.269531 -28.890625 54.21875 -34.171875 C 55.25 -34.503906 56.335938 -34.796875 57.484375 -35.046875 C 59.921875 -35.523438 62.191406 -36.234375 64.296875 -37.171875 C 66.398438 -38.117188 67.984375 -39.753906 69.046875 -42.078125 C 73.035156 -51.273438 76.875 -60.476562 80.5625 -69.6875 C 84.257812 -78.894531 87.695312 -88.265625 90.875 -97.796875 C 90.875 -97.867188 90.910156 -97.976562 90.984375 -98.125 C 91.460938 -99.851562 92.109375 -101.476562 92.921875 -103 C 93.253906 -103.507812 93.6875 -103.863281 94.21875 -104.0625 C 94.75 -104.269531 95.296875 -104.320312 95.859375 -104.21875 C 96.265625 -104.320312 96.707031 -104.320312 97.1875 -104.21875 C 98.40625 -103.914062 99.101562 -103.101562 99.28125 -101.78125 C 99.28125 -99.269531 98.820312 -96.832031 97.90625 -94.46875 C 97.90625 -94.394531 97.867188 -94.285156 97.796875 -94.140625 C 93.804688 -81.953125 89.335938 -69.972656 84.390625 -58.203125 C 83.097656 -54.953125 81.769531 -51.738281 80.40625 -48.5625 C 79.882812 -47.414062 79.382812 -46.234375 78.90625 -45.015625 C 78.28125 -43.578125 78.019531 -42.585938 78.125 -42.046875 C 78.238281 -41.515625 78.617188 -41.265625 79.265625 -41.296875 C 79.910156 -41.335938 80.695312 -41.523438 81.625 -41.859375 C 81.914062 -41.929688 82.226562 -42.003906 82.5625 -42.078125 C 86.144531 -43.003906 89.726562 -43.910156 93.3125 -44.796875 C 99.800781 -46.421875 106.332031 -48.046875 112.90625 -49.671875 C 129 -53.472656 145.207031 -56.722656 161.53125 -59.421875 C 164.445312 -59.898438 166.992188 -61.023438 169.171875 -62.796875 C 173.816406 -66.304688 178.410156 -70.429688 182.953125 -75.171875 C 187.492188 -79.910156 191.25 -85.019531 194.21875 -90.5 C 197.195312 -95.988281 198.535156 -101.617188 198.234375 -107.390625 C 197.941406 -113.171875 195.285156 -118.90625 190.265625 -124.59375 C 187.015625 -127.988281 183.320312 -130.832031 179.1875 -133.125 C 170.476562 -137.8125 160.015625 -141.25 147.796875 -143.4375 C 135.578125 -145.632812 122.476562 -146.796875 108.5 -146.921875 C 94.53125 -147.054688 80.539062 -146.347656 66.53125 -144.796875 C 52.519531 -143.253906 39.40625 -141.109375 27.1875 -138.359375 C 14.96875 -135.609375 4.484375 -132.476562 -4.265625 -128.96875 C -11.828125 -125.976562 -19.023438 -122.285156 -25.859375 -117.890625 C -28.628906 -116.191406 -31.234375 -114.328125 -33.671875 -112.296875 C -36.109375 -110.265625 -38.285156 -107.941406 -40.203125 -105.328125 C -40.941406 -104.179688 -41.921875 -103.570312 -43.140625 -103.5 C -43.398438 -103.5 -43.691406 -103.5 -44.015625 -103.5 C -44.097656 -103.5 -44.175781 -103.5 -44.25 -103.5 C -44.726562 -103.5 -45.1875 -103.5625 -45.625 -103.6875 C -46.070312 -103.8125 -46.425781 -104.078125 -46.6875 -104.484375 C -46.832031 -104.816406 -46.90625 -105.160156 -46.90625 -105.515625 C -46.90625 -105.867188 -46.867188 -106.171875 -46.796875 -106.421875 C -46.160156 -107.898438 -45.304688 -109.203125 -44.234375 -110.328125 C -43.171875 -111.453125 -42.085938 -112.550781 -40.984375 -113.625 C -38.023438 -116.132812 -34.945312 -118.40625 -31.75 -120.4375 C -28.5625 -122.46875 -25.285156 -124.367188 -21.921875 -126.140625 C -13.328125 -130.722656 -2.332031 -134.835938 11.0625 -138.484375 C 24.46875 -142.140625 39.191406 -145.082031 55.234375 -147.3125 C 71.273438 -149.550781 87.4375 -150.769531 103.71875 -150.96875 C 120 -151.175781 135.242188 -150.097656 149.453125 -147.734375 C 163.671875 -145.367188 175.78125 -141.421875 185.78125 -135.890625 C 190.25 -133.453125 194.253906 -130.332031 197.796875 -126.53125 C 202.773438 -120.914062 205.609375 -115.367188 206.296875 -109.890625 C 206.984375 -104.410156 206.226562 -99.09375 204.03125 -93.9375 C 201.832031 -88.789062 198.800781 -83.878906 194.9375 -79.203125 C 191.082031 -74.535156 187.125 -70.171875 183.0625 -66.109375 C 182.582031 -65.703125 182.101562 -65.195312 181.625 -64.59375 C 181.144531 -63.988281 180.941406 -63.484375 181.015625 -63.078125 C 181.085938 -62.671875 181.695312 -62.539062 182.84375 -62.6875 C 196.46875 -64.894531 210.0625 -66.5625 223.625 -67.6875 C 237.195312 -68.820312 250.847656 -69.59375 264.578125 -70 C 264.984375 -70 265.351562 -70 265.6875 -70 L 265.796875 -70 C 266.941406 -70 268.085938 -69.921875 269.234375 -69.765625 Z M 54.828125 -10.6875 C 55.117188 -11.425781 55.671875 -12.476562 56.484375 -13.84375 C 57.628906 -16.019531 58.828125 -18.425781 60.078125 -21.0625 C 61.335938 -23.707031 62.253906 -26.023438 62.828125 -28.015625 C 63.398438 -30.015625 63.113281 -31.101562 61.96875 -31.28125 C 61.257812 -31.175781 60.578125 -31.007812 59.921875 -30.78125 C 59.765625 -30.78125 59.5625 -30.742188 59.3125 -30.671875 C 56.71875 -29.859375 54.113281 -29.085938 51.5 -28.359375 C 45.257812 -26.546875 39 -24.625 32.71875 -22.59375 C 32.425781 -22.519531 32.113281 -22.410156 31.78125 -22.265625 C 20.5625 -18.828125 9.503906 -14.875 -1.390625 -10.40625 C -6.890625 -8.15625 -12.113281 -5.40625 -17.0625 -2.15625 C -18.9375 -1.082031 -20.484375 0.335938 -21.703125 2.109375 C -22.179688 2.847656 -22.316406 3.519531 -22.109375 4.125 C -21.910156 4.726562 -21.40625 5.195312 -20.59375 5.53125 C -18.894531 6.09375 -17.160156 6.375 -15.390625 6.375 C -13.835938 6.375 -12.289062 6.296875 -10.75 6.140625 C -10.664062 6.140625 -10.625 6.140625 -10.625 6.140625 C -2.582031 5.328125 5.332031 4.019531 13.125 2.21875 C 25.488281 -0.507812 37.707031 -3.703125 49.78125 -7.359375 C 49.96875 -7.472656 50.097656 -7.53125 50.171875 -7.53125 C 51.128906 -7.75 52.015625 -8.078125 52.828125 -8.515625 C 53.640625 -8.960938 54.304688 -9.6875 54.828125 -10.6875 Z M 65.171875 -12.84375 C 72.484375 -14.726562 82.429688 -18.242188 95.015625 -23.390625 C 107.609375 -28.546875 119.707031 -33.992188 131.3125 -39.734375 C 142.925781 -45.472656 150.835938 -50.207031 155.046875 -53.9375 C 154.492188 -53.9375 154.015625 -53.9375 153.609375 -53.9375 C 153.421875 -53.9375 153.289062 -53.9375 153.21875 -53.9375 C 127.707031 -48.875 102.457031 -42.851562 77.46875 -35.875 C 75.25 -35.25 73.734375 -33.921875 72.921875 -31.890625 C 71.410156 -28.640625 69.914062 -25.429688 68.4375 -22.265625 C 67.289062 -19.898438 66.148438 -17.5 65.015625 -15.0625 C 64.859375 -14.726562 64.757812 -14.359375 64.71875 -13.953125 C 64.6875 -13.546875 64.835938 -13.175781 65.171875 -12.84375 Z M 65.171875 -12.84375 "/></g></g></g></svg>