<svg xmlns="http://www.w3.org/2000/svg" xmlns:xlink="http://www.w3.org/1999/xlink" width="500" zoomAndPan="magnify" viewBox="0 0 375 374.999991" height="500" preserveAspectRatio="xMidYMid meet" version="1.0"><defs><g/></defs><g fill="#ffffff" fill-opacity="1"><g transform="translate(38.725874, 230.249985)"><g><path d="M 178.046875 -46.140625 C 178.640625 -46.015625 179.101562 -45.769531 179.4375 -45.40625 C 179.78125 -45.039062 179.851562 -44.6875 179.65625 -44.34375 C 179.4375 -44.03125 179.191406 -43.835938 178.921875 -43.765625 C 178.660156 -43.691406 178.367188 -43.675781 178.046875 -43.71875 C 177.660156 -43.71875 177.257812 -43.742188 176.84375 -43.796875 C 171.03125 -43.972656 163.332031 -43.640625 153.75 -42.796875 C 144.164062 -41.953125 136.445312 -41.125 130.59375 -40.3125 C 126.070312 -39.726562 121.554688 -39.097656 117.046875 -38.421875 C 116.941406 -38.421875 116.804688 -38.382812 116.640625 -38.3125 C 114.753906 -38.039062 113.03125 -37.34375 111.46875 -36.21875 C 105.738281 -32.3125 99.804688 -28.769531 93.671875 -25.59375 C 87.546875 -22.425781 81.296875 -19.472656 74.921875 -16.734375 C 64.597656 -12.171875 54.039062 -8.191406 43.25 -4.796875 C 41.050781 -4.210938 39.441406 -2.867188 38.421875 -0.765625 C 33.628906 8.773438 28.632812 18.113281 23.4375 27.25 C 18.820312 35.375 14.390625 43.597656 10.140625 51.921875 C 10.140625 51.972656 10.117188 52.023438 10.078125 52.078125 C 9.898438 52.515625 9.675781 52.867188 9.40625 53.140625 C 8.96875 53.503906 8.457031 53.640625 7.875 53.546875 C 7.550781 53.640625 7.234375 53.640625 6.921875 53.546875 C 6.265625 53.273438 5.9375 52.785156 5.9375 52.078125 C 6.007812 50.898438 6.382812 49.800781 7.0625 48.78125 C 7.113281 48.726562 7.140625 48.664062 7.140625 48.59375 C 11.441406 40.882812 15.671875 33.171875 19.828125 25.453125 C 23.992188 17.734375 28.015625 9.910156 31.890625 1.984375 C 32.210938 1.316406 32.53125 0.644531 32.84375 -0.03125 C 32.96875 -0.375 33.101562 -0.726562 33.25 -1.09375 C 32.882812 -1.195312 32.546875 -1.285156 32.234375 -1.359375 C 31.617188 -1.234375 31.019531 -1.0625 30.4375 -0.84375 C 30.21875 -0.789062 30.007812 -0.71875 29.8125 -0.625 C 22.289062 1.519531 14.6875 3.351562 7 4.875 C 1.675781 5.820312 -3.671875 6.492188 -9.046875 6.890625 C -9.316406 6.929688 -9.5625 6.953125 -9.78125 6.953125 C -10.3125 7.003906 -10.847656 7.03125 -11.390625 7.03125 C -13.460938 7.03125 -15.476562 6.710938 -17.4375 6.078125 C -18.925781 5.546875 -19.816406 4.695312 -20.109375 3.53125 C -20.398438 2.375 -20.046875 1.125 -19.046875 -0.21875 C -17.703125 -1.78125 -16.113281 -3.0625 -14.28125 -4.0625 C -10.132812 -6.65625 -5.773438 -8.78125 -1.203125 -10.4375 C 10.972656 -15.050781 23.328125 -19.101562 35.859375 -22.59375 C 36.535156 -22.8125 37.253906 -23.007812 38.015625 -23.1875 C 39.628906 -23.5 41.128906 -23.96875 42.515625 -24.59375 C 43.910156 -25.21875 44.960938 -26.296875 45.671875 -27.828125 C 48.304688 -33.910156 50.84375 -39.992188 53.28125 -46.078125 C 55.726562 -52.171875 58 -58.367188 60.09375 -64.671875 C 60.09375 -64.722656 60.117188 -64.796875 60.171875 -64.890625 C 60.484375 -66.035156 60.910156 -67.109375 61.453125 -68.109375 C 61.671875 -68.453125 61.957031 -68.691406 62.3125 -68.828125 C 62.664062 -68.960938 63.023438 -68.992188 63.390625 -68.921875 C 63.660156 -68.992188 63.953125 -68.992188 64.265625 -68.921875 C 65.078125 -68.722656 65.539062 -68.1875 65.65625 -67.3125 C 65.65625 -65.644531 65.351562 -64.03125 64.75 -62.46875 C 64.75 -62.425781 64.722656 -62.351562 64.671875 -62.25 C 62.035156 -54.195312 59.082031 -46.273438 55.8125 -38.484375 C 54.957031 -36.335938 54.078125 -34.210938 53.171875 -32.109375 C 52.828125 -31.359375 52.5 -30.578125 52.1875 -29.765625 C 51.769531 -28.816406 51.597656 -28.164062 51.671875 -27.8125 C 51.742188 -27.457031 51.992188 -27.289062 52.421875 -27.3125 C 52.847656 -27.34375 53.367188 -27.46875 53.984375 -27.6875 C 54.171875 -27.738281 54.378906 -27.785156 54.609375 -27.828125 C 56.972656 -28.441406 59.335938 -29.039062 61.703125 -29.625 C 66.003906 -30.695312 70.328125 -31.769531 74.671875 -32.84375 C 85.316406 -35.363281 96.035156 -37.515625 106.828125 -39.296875 C 108.753906 -39.609375 110.4375 -40.351562 111.875 -41.53125 C 114.945312 -43.84375 117.984375 -46.566406 120.984375 -49.703125 C 123.992188 -52.847656 126.476562 -56.234375 128.4375 -59.859375 C 130.40625 -63.484375 131.289062 -67.207031 131.09375 -71.03125 C 130.90625 -74.851562 129.148438 -78.640625 125.828125 -82.390625 C 123.679688 -84.640625 121.238281 -86.519531 118.5 -88.03125 C 112.738281 -91.132812 105.816406 -93.410156 97.734375 -94.859375 C 89.660156 -96.316406 81 -97.085938 71.75 -97.171875 C 62.507812 -97.253906 53.257812 -96.78125 44 -95.75 C 34.738281 -94.726562 26.066406 -93.304688 17.984375 -91.484375 C 9.898438 -89.671875 2.96875 -87.609375 -2.8125 -85.296875 C -7.820312 -83.316406 -12.585938 -80.875 -17.109375 -77.96875 C -18.929688 -76.84375 -20.648438 -75.609375 -22.265625 -74.265625 C -23.878906 -72.921875 -25.320312 -71.382812 -26.59375 -69.65625 C -27.070312 -68.894531 -27.71875 -68.488281 -28.53125 -68.4375 C -28.695312 -68.4375 -28.890625 -68.4375 -29.109375 -68.4375 C -29.160156 -68.4375 -29.210938 -68.4375 -29.265625 -68.4375 C -29.578125 -68.4375 -29.878906 -68.476562 -30.171875 -68.5625 C -30.460938 -68.65625 -30.695312 -68.835938 -30.875 -69.109375 C -30.96875 -69.328125 -31.015625 -69.550781 -31.015625 -69.78125 C -31.015625 -70.007812 -30.988281 -70.210938 -30.9375 -70.390625 C -30.53125 -71.359375 -29.972656 -72.210938 -29.265625 -72.953125 C -28.554688 -73.703125 -27.832031 -74.429688 -27.09375 -75.140625 C -25.144531 -76.804688 -23.113281 -78.3125 -21 -79.65625 C -18.882812 -81 -16.71875 -82.253906 -14.5 -83.421875 C -8.8125 -86.453125 -1.535156 -89.175781 7.328125 -91.59375 C 16.191406 -94.007812 25.925781 -95.953125 36.53125 -97.421875 C 47.132812 -98.898438 57.816406 -99.707031 68.578125 -99.84375 C 79.347656 -99.976562 89.429688 -99.265625 98.828125 -97.703125 C 108.234375 -96.140625 116.242188 -93.53125 122.859375 -89.875 C 125.816406 -88.257812 128.46875 -86.191406 130.8125 -83.671875 C 134.101562 -79.960938 135.972656 -76.296875 136.421875 -72.671875 C 136.878906 -69.046875 136.378906 -65.53125 134.921875 -62.125 C 133.472656 -58.71875 131.472656 -55.46875 128.921875 -52.375 C 126.367188 -49.289062 123.75 -46.40625 121.0625 -43.71875 C 120.75 -43.457031 120.429688 -43.125 120.109375 -42.71875 C 119.796875 -42.3125 119.660156 -41.972656 119.703125 -41.703125 C 119.753906 -41.441406 120.160156 -41.359375 120.921875 -41.453125 C 129.929688 -42.921875 138.921875 -44.023438 147.890625 -44.765625 C 156.867188 -45.515625 165.894531 -46.023438 174.96875 -46.296875 C 175.238281 -46.296875 175.484375 -46.296875 175.703125 -46.296875 L 175.78125 -46.296875 C 176.539062 -46.296875 177.296875 -46.242188 178.046875 -46.140625 Z M 36.25 -7.0625 C 36.445312 -7.550781 36.816406 -8.25 37.359375 -9.15625 C 38.109375 -10.59375 38.898438 -12.179688 39.734375 -13.921875 C 40.566406 -15.671875 41.171875 -17.207031 41.546875 -18.53125 C 41.921875 -19.851562 41.734375 -20.570312 40.984375 -20.6875 C 40.515625 -20.613281 40.0625 -20.503906 39.625 -20.359375 C 39.53125 -20.359375 39.394531 -20.332031 39.21875 -20.28125 C 37.507812 -19.75 35.789062 -19.238281 34.0625 -18.75 C 29.9375 -17.550781 25.796875 -16.28125 21.640625 -14.9375 C 21.441406 -14.894531 21.234375 -14.820312 21.015625 -14.71875 C 13.597656 -12.445312 6.285156 -9.835938 -0.921875 -6.890625 C -4.554688 -5.398438 -8.007812 -3.578125 -11.28125 -1.421875 C -12.519531 -0.710938 -13.546875 0.222656 -14.359375 1.390625 C -14.671875 1.878906 -14.757812 2.320312 -14.625 2.71875 C -14.488281 3.125 -14.15625 3.4375 -13.625 3.65625 C -12.5 4.03125 -11.351562 4.21875 -10.1875 4.21875 C -9.15625 4.21875 -8.128906 4.164062 -7.109375 4.0625 C -7.054688 4.0625 -7.03125 4.0625 -7.03125 4.0625 C -1.707031 3.53125 3.523438 2.664062 8.671875 1.46875 C 16.859375 -0.34375 24.941406 -2.457031 32.921875 -4.875 C 33.046875 -4.945312 33.128906 -4.984375 33.171875 -4.984375 C 33.804688 -5.128906 34.394531 -5.347656 34.9375 -5.640625 C 35.476562 -5.929688 35.914062 -6.40625 36.25 -7.0625 Z M 43.109375 -8.5 C 47.941406 -9.738281 54.519531 -12.0625 62.84375 -15.46875 C 71.164062 -18.875 79.164062 -22.472656 86.84375 -26.265625 C 94.519531 -30.066406 99.753906 -33.203125 102.546875 -35.671875 C 102.171875 -35.671875 101.851562 -35.671875 101.59375 -35.671875 C 101.46875 -35.671875 101.378906 -35.671875 101.328125 -35.671875 C 84.460938 -32.328125 67.765625 -28.347656 51.234375 -23.734375 C 49.765625 -23.316406 48.765625 -22.4375 48.234375 -21.09375 C 47.234375 -18.945312 46.242188 -16.820312 45.265625 -14.71875 C 44.503906 -13.15625 43.75 -11.570312 43 -9.96875 C 42.894531 -9.738281 42.832031 -9.488281 42.8125 -9.21875 C 42.789062 -8.957031 42.890625 -8.71875 43.109375 -8.5 Z M 43.109375 -8.5 "/></g></g><g transform="translate(141.411415, 230.249985)"><g><path d="M 17.578125 -22.484375 C 17.359375 -20.796875 16.5625 -19.695312 15.1875 -19.1875 C 13.820312 -18.675781 13.378906 -19.347656 13.859375 -21.203125 C 14.335938 -23.054688 13.5 -23.523438 11.34375 -22.609375 C 9.195312 -21.691406 7.429688 -20.539062 6.046875 -19.15625 C 3.890625 -16.957031 1.984375 -14.585938 0.328125 -12.046875 C 0.160156 -11.828125 0.0234375 -11.644531 -0.078125 -11.5 C -0.566406 -10.789062 -1.050781 -10.117188 -1.53125 -9.484375 C -1.851562 -9.046875 -2.226562 -8.769531 -2.65625 -8.65625 C -3.082031 -8.550781 -3.515625 -8.535156 -3.953125 -8.609375 C -4.367188 -8.648438 -4.6875 -8.804688 -4.90625 -9.078125 C -5.125 -9.347656 -5.148438 -9.664062 -4.984375 -10.03125 C -4.710938 -10.6875 -4.394531 -11.359375 -4.03125 -12.046875 C -1.832031 -16.128906 0.398438 -20.21875 2.671875 -24.3125 C 2.722656 -24.363281 2.75 -24.414062 2.75 -24.46875 C 3.0625 -25.101562 3.4375 -25.6875 3.875 -26.21875 C 4.363281 -26.757812 4.925781 -26.976562 5.5625 -26.875 C 6.195312 -26.78125 6.625 -26.40625 6.84375 -25.75 C 7.113281 -24.894531 7.347656 -24.410156 7.546875 -24.296875 C 7.742188 -24.191406 8.179688 -24.269531 8.859375 -24.53125 C 10.328125 -25.070312 11.753906 -25.453125 13.140625 -25.671875 C 14.535156 -25.890625 15.675781 -25.832031 16.5625 -25.5 C 17.457031 -25.175781 17.796875 -24.171875 17.578125 -22.484375 Z M 17.578125 -22.484375 "/></g></g><g transform="translate(159.721961, 230.249985)"><g><path d="M 26.5625 -18.65625 C 27.132812 -18.332031 27.179688 -17.535156 26.703125 -16.265625 C 25.992188 -15.335938 25.234375 -14.46875 24.421875 -13.65625 C 23.617188 -12.851562 22.742188 -12.132812 21.796875 -11.5 C 21.722656 -11.5 21.6875 -11.472656 21.6875 -11.421875 C 21.050781 -10.984375 20.378906 -10.609375 19.671875 -10.296875 C 13.828125 -8.191406 10.847656 -9.421875 10.734375 -13.984375 C 8.359375 -11.929688 6.769531 -10.675781 5.96875 -10.21875 C 4.039062 -9.070312 1.953125 -8.554688 -0.296875 -8.671875 C -1.953125 -8.773438 -3.078125 -9.285156 -3.671875 -10.203125 C -4.273438 -11.117188 -4.222656 -12.359375 -3.515625 -13.921875 C -2.441406 -16.378906 -0.914062 -18.578125 1.0625 -20.515625 C 3.382812 -22.660156 5.960938 -24.378906 8.796875 -25.671875 C 10.304688 -26.429688 11.890625 -26.722656 13.546875 -26.546875 C 15.210938 -26.453125 16.210938 -25.515625 16.546875 -23.734375 C 16.691406 -23.191406 16.5625 -22.710938 16.15625 -22.296875 C 15.613281 -21.804688 14.988281 -21.695312 14.28125 -21.96875 C 14.226562 -21.96875 14.160156 -21.976562 14.078125 -22 C 13.992188 -22.03125 13.925781 -22.070312 13.875 -22.125 C 13.164062 -23.09375 12.453125 -23.5 11.734375 -23.34375 C 11.015625 -23.1875 10.253906 -22.863281 9.453125 -22.375 C 5.691406 -20.175781 2.894531 -17.113281 1.0625 -13.1875 C 0.96875 -13.007812 0.90625 -12.816406 0.875 -12.609375 C 0.851562 -12.410156 0.914062 -12.25 1.0625 -12.125 C 1.5 -11.976562 1.984375 -12.007812 2.515625 -12.21875 C 3.054688 -12.425781 3.59375 -12.726562 4.125 -13.125 C 4.664062 -13.53125 5.125 -13.867188 5.5 -14.140625 C 5.539062 -14.210938 5.5625 -14.25 5.5625 -14.25 C 7.34375 -15.738281 9.085938 -17.265625 10.796875 -18.828125 C 11.554688 -19.628906 12.5 -20.078125 13.625 -20.171875 C 15.238281 -20.171875 15.910156 -19.453125 15.640625 -18.015625 C 15.492188 -17.484375 15.332031 -16.945312 15.15625 -16.40625 C 14.519531 -14.082031 14.492188 -12.71875 15.078125 -12.3125 C 15.671875 -11.914062 16.570312 -11.914062 17.78125 -12.3125 C 18.988281 -12.71875 20.195312 -13.488281 21.40625 -14.625 C 22.613281 -15.757812 23.628906 -16.796875 24.453125 -17.734375 C 25.285156 -18.679688 25.988281 -18.988281 26.5625 -18.65625 Z M 26.5625 -18.65625 "/></g></g><g transform="translate(184.001745, 230.249985)"><g><path d="M 22.890625 -17.6875 C 19.617188 -13.832031 16.410156 -10.988281 13.265625 -9.15625 C 10.128906 -7.320312 6.773438 -6.71875 3.203125 -7.34375 C -0.367188 -7.96875 -1.835938 -10.363281 -1.203125 -14.53125 C -0.765625 -16.632812 -0.164062 -18.6875 0.59375 -20.6875 C 2.46875 -25.351562 4.367188 -29.992188 6.296875 -34.609375 C 6.929688 -36.265625 7.601562 -37.9375 8.3125 -39.625 C 8.476562 -39.988281 8.640625 -40.351562 8.796875 -40.71875 C 9.054688 -41.332031 9.320312 -41.957031 9.59375 -42.59375 C 9.988281 -43.664062 9.5625 -44.226562 8.3125 -44.28125 C 7.601562 -44.28125 6.90625 -44.28125 6.21875 -44.28125 C 5.90625 -44.28125 5.550781 -44.28125 5.15625 -44.28125 C 4.789062 -44.226562 4.414062 -44.175781 4.03125 -44.125 C 3.394531 -44.082031 2.765625 -44.0625 2.140625 -44.0625 C 1.515625 -44.0625 0.9375 -44.21875 0.40625 -44.53125 C 0.257812 -44.582031 0.140625 -44.671875 0.046875 -44.796875 C -0.0351562 -44.929688 -0.078125 -45.085938 -0.078125 -45.265625 C -0.0234375 -45.359375 0.0507812 -45.472656 0.15625 -45.609375 C 0.269531 -45.742188 0.414062 -45.835938 0.59375 -45.890625 C 1.125 -46.109375 1.679688 -46.265625 2.265625 -46.359375 C 3.785156 -46.429688 5.289062 -46.492188 6.78125 -46.546875 C 7.363281 -46.546875 7.875 -46.546875 8.3125 -46.546875 C 9.289062 -46.546875 10.015625 -46.582031 10.484375 -46.65625 C 10.960938 -46.726562 11.347656 -46.984375 11.640625 -47.421875 C 11.929688 -47.859375 12.273438 -48.53125 12.671875 -49.4375 C 12.890625 -49.925781 13.160156 -50.460938 13.484375 -51.046875 C 14.285156 -52.753906 15.085938 -54.5 15.890625 -56.28125 C 16.253906 -57.09375 16.632812 -57.875 17.03125 -58.625 C 17.34375 -59.382812 17.84375 -59.972656 18.53125 -60.390625 C 19.1875 -60.703125 19.757812 -60.675781 20.25 -60.3125 C 20.394531 -60.21875 20.507812 -60.0625 20.59375 -59.84375 C 20.6875 -59.625 20.734375 -59.425781 20.734375 -59.25 C 20.734375 -58.300781 20.488281 -57.363281 20 -56.4375 C 19.894531 -56.238281 19.785156 -56.003906 19.671875 -55.734375 C 19.347656 -54.859375 19.003906 -53.96875 18.640625 -53.0625 C 17.929688 -51.40625 17.257812 -49.707031 16.625 -47.96875 C 16.457031 -47.65625 16.453125 -47.375 16.609375 -47.125 C 16.765625 -46.882812 17.003906 -46.765625 17.328125 -46.765625 C 19.054688 -46.710938 20.75 -46.6875 22.40625 -46.6875 C 23.257812 -46.6875 24.113281 -46.6875 24.96875 -46.6875 C 27.65625 -46.644531 28.734375 -46.269531 28.203125 -45.5625 C 27.835938 -45.144531 27.441406 -44.90625 27.015625 -44.84375 C 26.585938 -44.78125 26.148438 -44.785156 25.703125 -44.859375 C 25.441406 -44.859375 25.175781 -44.859375 24.90625 -44.859375 C 22.164062 -44.691406 19.453125 -44.582031 16.765625 -44.53125 C 15.523438 -44.53125 14.695312 -43.96875 14.28125 -42.84375 C 13.84375 -41.769531 13.414062 -40.695312 13 -39.625 C 12.382812 -38.207031 11.8125 -36.828125 11.28125 -35.484375 C 10.738281 -34.210938 10.203125 -32.929688 9.671875 -31.640625 C 8.273438 -28.367188 6.929688 -25.085938 5.640625 -21.796875 C 4.835938 -19.640625 4.203125 -17.441406 3.734375 -15.203125 C 2.710938 -11.117188 4.285156 -9.554688 8.453125 -10.515625 C 12.554688 -11.484375 16.851562 -14.4375 21.34375 -19.375 C 23.300781 -20.613281 23.816406 -20.050781 22.890625 -17.6875 Z M 22.890625 -17.6875 "/></g></g><g transform="translate(204.802524, 230.249985)"><g><path d="M 14.546875 -15.4375 C 13.242188 -13.882812 11.703125 -12.460938 9.921875 -11.171875 C 8.140625 -9.878906 6.125 -9.003906 3.875 -8.546875 C 1.632812 -8.097656 -0.101562 -8.265625 -1.34375 -9.046875 C -2.59375 -9.828125 -2.84375 -11.5625 -2.09375 -14.25 C -1.113281 -17.03125 0.226562 -19.675781 1.9375 -22.1875 C 2.332031 -22.726562 2.894531 -23.109375 3.625 -23.328125 C 4.164062 -23.453125 4.632812 -23.359375 5.03125 -23.046875 C 5.4375 -22.742188 5.59375 -22.363281 5.5 -21.90625 C 5.125 -21.019531 4.71875 -20.132812 4.28125 -19.25 C 3.84375 -18.375 3.550781 -17.804688 3.40625 -17.546875 C 2.550781 -15.984375 1.953125 -14.347656 1.609375 -12.640625 C 1.609375 -11.660156 2.914062 -11.597656 5.53125 -12.453125 C 8.144531 -13.304688 10.679688 -14.875 13.140625 -17.15625 C 15.609375 -19.4375 16.785156 -20.109375 16.671875 -19.171875 C 16.566406 -18.234375 15.859375 -16.988281 14.546875 -15.4375 Z M 8.171875 -27.6875 C 8.046875 -27.59375 7.789062 -27.476562 7.40625 -27.34375 C 7.03125 -27.207031 6.628906 -27.109375 6.203125 -27.046875 C 5.773438 -26.984375 5.4375 -27.050781 5.1875 -27.25 C 4.945312 -27.445312 4.9375 -27.835938 5.15625 -28.421875 C 5.550781 -29.441406 5.960938 -30.335938 6.390625 -31.109375 C 6.816406 -31.878906 7.375 -32.726562 8.0625 -33.65625 C 8.5 -34.070312 8.972656 -34.296875 9.484375 -34.328125 C 9.992188 -34.367188 10.421875 -34.234375 10.765625 -33.921875 C 11.109375 -33.617188 11.207031 -33.203125 11.0625 -32.671875 C 10.519531 -30.734375 9.554688 -29.070312 8.171875 -27.6875 Z M 8.171875 -27.6875 "/></g></g><g transform="translate(219.08475, 230.249985)"><g><path d="M 17.71875 -18.5625 C 13.863281 -17.125 11.082031 -15.953125 9.375 -15.046875 C 8.125 -14.441406 7.40625 -13.9375 7.21875 -13.53125 C 7.039062 -13.125 7.1875 -12.382812 7.65625 -11.3125 C 7.65625 -11.269531 7.691406 -11.195312 7.765625 -11.09375 C 8.296875 -9.800781 8.613281 -8.457031 8.71875 -7.0625 C 8.882812 -4.257812 6.492188 -2.296875 1.546875 -1.171875 C -3.390625 -0.046875 -6.691406 -0.0078125 -8.359375 -1.0625 C -10.035156 -2.113281 -10.550781 -3.441406 -9.90625 -5.046875 C -9.257812 -6.660156 -7.582031 -8.296875 -4.875 -9.953125 C -2.164062 -11.617188 -0.351562 -12.816406 0.5625 -13.546875 C 1.476562 -14.285156 1.753906 -15.101562 1.390625 -16 C 1.265625 -16.320312 1.128906 -16.640625 0.984375 -16.953125 C 0.671875 -17.710938 0.34375 -18.492188 0 -19.296875 C -0.632812 -20.765625 -0.910156 -22.207031 -0.828125 -23.625 C -0.742188 -25.039062 -0.21875 -26.226562 0.75 -27.1875 C 1.71875 -28.15625 3.210938 -28.675781 5.234375 -28.75 C 6.378906 -28.800781 7.40625 -28.648438 8.3125 -28.296875 C 9.21875 -27.941406 9.9375 -27.285156 10.46875 -26.328125 C 10.914062 -25.671875 10.785156 -25.070312 10.078125 -24.53125 C 9.609375 -24.164062 9.101562 -24.117188 8.5625 -24.390625 C 8.226562 -24.535156 7.898438 -24.742188 7.578125 -25.015625 C 7.578125 -25.085938 7.578125 -25.125 7.578125 -25.125 C 7.429688 -25.21875 7.296875 -25.316406 7.171875 -25.421875 C 7.023438 -25.640625 6.867188 -25.804688 6.703125 -25.921875 C 6.066406 -26.390625 5.425781 -26.53125 4.78125 -26.34375 C 4.132812 -26.164062 3.648438 -25.671875 3.328125 -24.859375 C 3.109375 -24.222656 3 -23.578125 3 -22.921875 C 3.050781 -22.117188 3.234375 -21.335938 3.546875 -20.578125 C 3.765625 -20.117188 3.960938 -19.691406 4.140625 -19.296875 C 4.554688 -18.222656 4.894531 -17.484375 5.15625 -17.078125 C 5.425781 -16.679688 5.75 -16.507812 6.125 -16.5625 C 6.507812 -16.625 9.972656 -17.863281 16.515625 -20.28125 C 17.929688 -20.75 18.332031 -20.175781 17.71875 -18.5625 Z M 1.875 -4.578125 C 3.582031 -5.160156 4.300781 -6.304688 4.03125 -8.015625 C 4.03125 -8.140625 4.003906 -8.273438 3.953125 -8.421875 C 3.859375 -9.347656 3.664062 -10.0625 3.375 -10.5625 C 3.082031 -11.0625 2.421875 -11.046875 1.390625 -10.515625 C -1.148438 -9.066406 -3.492188 -7.378906 -5.640625 -5.453125 C -5.785156 -5.285156 -5.921875 -5.128906 -6.046875 -4.984375 C -6.046875 -4.984375 -6.066406 -4.945312 -6.109375 -4.875 C -6.253906 -4.675781 -6.28125 -4.453125 -6.1875 -4.203125 C -6.09375 -3.960938 -5.875 -3.84375 -5.53125 -3.84375 C -3.019531 -3.457031 -0.550781 -3.703125 1.875 -4.578125 Z M 1.875 -4.578125 "/></g></g><g transform="translate(235.307893, 230.249985)"><g><path d="M 29.734375 -17.0625 C 29.296875 -16.675781 28.832031 -16.320312 28.34375 -16 C 26.78125 -15.019531 25.367188 -14.25 24.109375 -13.6875 C 22.859375 -13.132812 21.378906 -12.5625 19.671875 -11.96875 C 17.128906 -11.21875 15.5 -11.390625 14.78125 -12.484375 C 14.0625 -13.585938 13.941406 -15.113281 14.421875 -17.0625 C 15.109375 -19.84375 15.503906 -21.878906 15.609375 -23.171875 C 15.722656 -24.472656 15.296875 -24.921875 14.328125 -24.515625 C 13.367188 -24.109375 11.617188 -22.773438 9.078125 -20.515625 C 5.535156 -17.460938 2.507812 -13.96875 0 -10.03125 C -0.3125 -9.5 -0.703125 -9.0625 -1.171875 -8.71875 C -1.640625 -8.375 -2.210938 -8.203125 -2.890625 -8.203125 C -3.546875 -8.203125 -4.019531 -8.375 -4.3125 -8.71875 C -4.613281 -9.0625 -4.628906 -9.523438 -4.359375 -10.109375 C -2.921875 -13.285156 -1.441406 -16.4375 0.078125 -19.5625 C 2.660156 -24.976562 5.210938 -30.375 7.734375 -35.75 C 9.609375 -39.769531 11.460938 -43.796875 13.296875 -47.828125 C 14.421875 -50.191406 15.519531 -52.5625 16.59375 -54.9375 C 16.6875 -55.125 16.796875 -55.328125 16.921875 -55.546875 C 17.015625 -55.816406 17.128906 -56.085938 17.265625 -56.359375 C 17.398438 -56.628906 17.550781 -56.921875 17.71875 -57.234375 C 17.863281 -57.503906 18.140625 -57.722656 18.546875 -57.890625 C 18.953125 -58.066406 19.351562 -58.175781 19.75 -58.21875 C 20.15625 -58.269531 20.46875 -58.25 20.6875 -58.15625 C 21.007812 -57.9375 21.1875 -57.703125 21.21875 -57.453125 C 21.257812 -57.210938 21.21875 -56.957031 21.09375 -56.6875 C 21.039062 -56.632812 21.015625 -56.550781 21.015625 -56.4375 C 20.523438 -54.988281 20.015625 -53.597656 19.484375 -52.265625 C 16.378906 -44.785156 13 -37.421875 9.34375 -30.171875 C 9.070312 -29.679688 8.753906 -29.097656 8.390625 -28.421875 C 7.847656 -27.441406 7.34375 -26.484375 6.875 -25.546875 C 6.414062 -24.609375 6.265625 -23.976562 6.421875 -23.65625 C 6.585938 -23.34375 7.316406 -23.585938 8.609375 -24.390625 C 8.992188 -24.660156 9.347656 -24.929688 9.671875 -25.203125 C 10.691406 -25.878906 11.703125 -26.523438 12.703125 -27.140625 C 13.585938 -27.722656 14.566406 -28.039062 15.640625 -28.09375 C 18.203125 -28.257812 19.640625 -27.097656 19.953125 -24.609375 C 20.078125 -23.609375 20.039062 -22.617188 19.84375 -21.640625 C 19.65625 -20.660156 19.425781 -19.695312 19.15625 -18.75 C 19.101562 -18.476562 19.050781 -18.207031 19 -17.9375 C 18.5625 -16.28125 18.675781 -15.328125 19.34375 -15.078125 C 20.019531 -14.835938 20.960938 -14.972656 22.171875 -15.484375 C 23.378906 -16.003906 24.609375 -16.628906 25.859375 -17.359375 C 26.710938 -17.796875 27.460938 -18.171875 28.109375 -18.484375 C 28.753906 -18.804688 29.234375 -18.941406 29.546875 -18.890625 C 30.140625 -18.796875 30.410156 -18.554688 30.359375 -18.171875 C 30.304688 -17.796875 30.097656 -17.425781 29.734375 -17.0625 Z M 29.734375 -17.0625 "/></g></g><g transform="translate(263.249786, 230.249985)"><g><path d="M 22.890625 -17.6875 C 19.617188 -13.832031 16.410156 -10.988281 13.265625 -9.15625 C 10.128906 -7.320312 6.773438 -6.71875 3.203125 -7.34375 C -0.367188 -7.96875 -1.835938 -10.363281 -1.203125 -14.53125 C -0.765625 -16.632812 -0.164062 -18.6875 0.59375 -20.6875 C 2.46875 -25.351562 4.367188 -29.992188 6.296875 -34.609375 C 6.929688 -36.265625 7.601562 -37.9375 8.3125 -39.625 C 8.476562 -39.988281 8.640625 -40.351562 8.796875 -40.71875 C 9.054688 -41.332031 9.320312 -41.957031 9.59375 -42.59375 C 9.988281 -43.664062 9.5625 -44.226562 8.3125 -44.28125 C 7.601562 -44.28125 6.90625 -44.28125 6.21875 -44.28125 C 5.90625 -44.28125 5.550781 -44.28125 5.15625 -44.28125 C 4.789062 -44.226562 4.414062 -44.175781 4.03125 -44.125 C 3.394531 -44.082031 2.765625 -44.0625 2.140625 -44.0625 C 1.515625 -44.0625 0.9375 -44.21875 0.40625 -44.53125 C 0.257812 -44.582031 0.140625 -44.671875 0.046875 -44.796875 C -0.0351562 -44.929688 -0.078125 -45.085938 -0.078125 -45.265625 C -0.0234375 -45.359375 0.0507812 -45.472656 0.15625 -45.609375 C 0.269531 -45.742188 0.414062 -45.835938 0.59375 -45.890625 C 1.125 -46.109375 1.679688 -46.265625 2.265625 -46.359375 C 3.785156 -46.429688 5.289062 -46.492188 6.78125 -46.546875 C 7.363281 -46.546875 7.875 -46.546875 8.3125 -46.546875 C 9.289062 -46.546875 10.015625 -46.582031 10.484375 -46.65625 C 10.960938 -46.726562 11.347656 -46.984375 11.640625 -47.421875 C 11.929688 -47.859375 12.273438 -48.53125 12.671875 -49.4375 C 12.890625 -49.925781 13.160156 -50.460938 13.484375 -51.046875 C 14.285156 -52.753906 15.085938 -54.5 15.890625 -56.28125 C 16.253906 -57.09375 16.632812 -57.875 17.03125 -58.625 C 17.34375 -59.382812 17.84375 -59.972656 18.53125 -60.390625 C 19.1875 -60.703125 19.757812 -60.675781 20.25 -60.3125 C 20.394531 -60.21875 20.507812 -60.0625 20.59375 -59.84375 C 20.6875 -59.625 20.734375 -59.425781 20.734375 -59.25 C 20.734375 -58.300781 20.488281 -57.363281 20 -56.4375 C 19.894531 -56.238281 19.785156 -56.003906 19.671875 -55.734375 C 19.347656 -54.859375 19.003906 -53.96875 18.640625 -53.0625 C 17.929688 -51.40625 17.257812 -49.707031 16.625 -47.96875 C 16.457031 -47.65625 16.453125 -47.375 16.609375 -47.125 C 16.765625 -46.882812 17.003906 -46.765625 17.328125 -46.765625 C 19.054688 -46.710938 20.75 -46.6875 22.40625 -46.6875 C 23.257812 -46.6875 24.113281 -46.6875 24.96875 -46.6875 C 27.65625 -46.644531 28.734375 -46.269531 28.203125 -45.5625 C 27.835938 -45.144531 27.441406 -44.90625 27.015625 -44.84375 C 26.585938 -44.78125 26.148438 -44.785156 25.703125 -44.859375 C 25.441406 -44.859375 25.175781 -44.859375 24.90625 -44.859375 C 22.164062 -44.691406 19.453125 -44.582031 16.765625 -44.53125 C 15.523438 -44.53125 14.695312 -43.96875 14.28125 -42.84375 C 13.84375 -41.769531 13.414062 -40.695312 13 -39.625 C 12.382812 -38.207031 11.8125 -36.828125 11.28125 -35.484375 C 10.738281 -34.210938 10.203125 -32.929688 9.671875 -31.640625 C 8.273438 -28.367188 6.929688 -25.085938 5.640625 -21.796875 C 4.835938 -19.640625 4.203125 -17.441406 3.734375 -15.203125 C 2.710938 -11.117188 4.285156 -9.554688 8.453125 -10.515625 C 12.554688 -11.484375 16.851562 -14.4375 21.34375 -19.375 C 23.300781 -20.613281 23.816406 -20.050781 22.890625 -17.6875 Z M 22.890625 -17.6875 "/></g></g><g transform="translate(284.050566, 230.249985)"><g><path d="M 29.734375 -17.0625 C 29.296875 -16.675781 28.832031 -16.320312 28.34375 -16 C 26.78125 -15.019531 25.367188 -14.25 24.109375 -13.6875 C 22.859375 -13.132812 21.378906 -12.5625 19.671875 -11.96875 C 17.128906 -11.21875 15.5 -11.390625 14.78125 -12.484375 C 14.0625 -13.585938 13.941406 -15.113281 14.421875 -17.0625 C 15.109375 -19.84375 15.503906 -21.878906 15.609375 -23.171875 C 15.722656 -24.472656 15.296875 -24.921875 14.328125 -24.515625 C 13.367188 -24.109375 11.617188 -22.773438 9.078125 -20.515625 C 5.535156 -17.460938 2.507812 -13.96875 0 -10.03125 C -0.3125 -9.5 -0.703125 -9.0625 -1.171875 -8.71875 C -1.640625 -8.375 -2.210938 -8.203125 -2.890625 -8.203125 C -3.546875 -8.203125 -4.019531 -8.375 -4.3125 -8.71875 C -4.613281 -9.0625 -4.628906 -9.523438 -4.359375 -10.109375 C -2.921875 -13.285156 -1.441406 -16.4375 0.078125 -19.5625 C 2.660156 -24.976562 5.210938 -30.375 7.734375 -35.75 C 9.609375 -39.769531 11.460938 -43.796875 13.296875 -47.828125 C 14.421875 -50.191406 15.519531 -52.5625 16.59375 -54.9375 C 16.6875 -55.125 16.796875 -55.328125 16.921875 -55.546875 C 17.015625 -55.816406 17.128906 -56.085938 17.265625 -56.359375 C 17.398438 -56.628906 17.550781 -56.921875 17.71875 -57.234375 C 17.863281 -57.503906 18.140625 -57.722656 18.546875 -57.890625 C 18.953125 -58.066406 19.351562 -58.175781 19.75 -58.21875 C 20.15625 -58.269531 20.46875 -58.25 20.6875 -58.15625 C 21.007812 -57.9375 21.1875 -57.703125 21.21875 -57.453125 C 21.257812 -57.210938 21.21875 -56.957031 21.09375 -56.6875 C 21.039062 -56.632812 21.015625 -56.550781 21.015625 -56.4375 C 20.523438 -54.988281 20.015625 -53.597656 19.484375 -52.265625 C 16.378906 -44.785156 13 -37.421875 9.34375 -30.171875 C 9.070312 -29.679688 8.753906 -29.097656 8.390625 -28.421875 C 7.847656 -27.441406 7.34375 -26.484375 6.875 -25.546875 C 6.414062 -24.609375 6.265625 -23.976562 6.421875 -23.65625 C 6.585938 -23.34375 7.316406 -23.585938 8.609375 -24.390625 C 8.992188 -24.660156 9.347656 -24.929688 9.671875 -25.203125 C 10.691406 -25.878906 11.703125 -26.523438 12.703125 -27.140625 C 13.585938 -27.722656 14.566406 -28.039062 15.640625 -28.09375 C 18.203125 -28.257812 19.640625 -27.097656 19.953125 -24.609375 C 20.078125 -23.609375 20.039062 -22.617188 19.84375 -21.640625 C 19.65625 -20.660156 19.425781 -19.695312 19.15625 -18.75 C 19.101562 -18.476562 19.050781 -18.207031 19 -17.9375 C 18.5625 -16.28125 18.675781 -15.328125 19.34375 -15.078125 C 20.019531 -14.835938 20.960938 -14.972656 22.171875 -15.484375 C 23.378906 -16.003906 24.609375 -16.628906 25.859375 -17.359375 C 26.710938 -17.796875 27.460938 -18.171875 28.109375 -18.484375 C 28.753906 -18.804688 29.234375 -18.941406 29.546875 -18.890625 C 30.140625 -18.796875 30.410156 -18.554688 30.359375 -18.171875 C 30.304688 -17.796875 30.097656 -17.425781 29.734375 -17.0625 Z M 29.734375 -17.0625 "/></g></g><g transform="translate(311.992458, 230.249985)"><g><path d="M 26.5625 -18.65625 C 27.132812 -18.332031 27.179688 -17.535156 26.703125 -16.265625 C 25.992188 -15.335938 25.234375 -14.46875 24.421875 -13.65625 C 23.617188 -12.851562 22.742188 -12.132812 21.796875 -11.5 C 21.722656 -11.5 21.6875 -11.472656 21.6875 -11.421875 C 21.050781 -10.984375 20.378906 -10.609375 19.671875 -10.296875 C 13.828125 -8.191406 10.847656 -9.421875 10.734375 -13.984375 C 8.359375 -11.929688 6.769531 -10.675781 5.96875 -10.21875 C 4.039062 -9.070312 1.953125 -8.554688 -0.296875 -8.671875 C -1.953125 -8.773438 -3.078125 -9.285156 -3.671875 -10.203125 C -4.273438 -11.117188 -4.222656 -12.359375 -3.515625 -13.921875 C -2.441406 -16.378906 -0.914062 -18.578125 1.0625 -20.515625 C 3.382812 -22.660156 5.960938 -24.378906 8.796875 -25.671875 C 10.304688 -26.429688 11.890625 -26.722656 13.546875 -26.546875 C 15.210938 -26.453125 16.210938 -25.515625 16.546875 -23.734375 C 16.691406 -23.191406 16.5625 -22.710938 16.15625 -22.296875 C 15.613281 -21.804688 14.988281 -21.695312 14.28125 -21.96875 C 14.226562 -21.96875 14.160156 -21.976562 14.078125 -22 C 13.992188 -22.03125 13.925781 -22.070312 13.875 -22.125 C 13.164062 -23.09375 12.453125 -23.5 11.734375 -23.34375 C 11.015625 -23.1875 10.253906 -22.863281 9.453125 -22.375 C 5.691406 -20.175781 2.894531 -17.113281 1.0625 -13.1875 C 0.96875 -13.007812 0.90625 -12.816406 0.875 -12.609375 C 0.851562 -12.410156 0.914062 -12.25 1.0625 -12.125 C 1.5 -11.976562 1.984375 -12.007812 2.515625 -12.21875 C 3.054688 -12.425781 3.59375 -12.726562 4.125 -13.125 C 4.664062 -13.53125 5.125 -13.867188 5.5 -14.140625 C 5.539062 -14.210938 5.5625 -14.25 5.5625 -14.25 C 7.34375 -15.738281 9.085938 -17.265625 10.796875 -18.828125 C 11.554688 -19.628906 12.5 -20.078125 13.625 -20.171875 C 15.238281 -20.171875 15.910156 -19.453125 15.640625 -18.015625 C 15.492188 -17.484375 15.332031 -16.945312 15.15625 -16.40625 C 14.519531 -14.082031 14.492188 -12.71875 15.078125 -12.3125 C 15.671875 -11.914062 16.570312 -11.914062 17.78125 -12.3125 C 18.988281 -12.71875 20.195312 -13.488281 21.40625 -14.625 C 22.613281 -15.757812 23.628906 -16.796875 24.453125 -17.734375 C 25.285156 -18.679688 25.988281 -18.988281 26.5625 -18.65625 Z M 26.5625 -18.65625 "/></g></g></g></svg>